<svg width="125" height="125" viewBox="0 0 125 125" fill="none" xmlns="http://www.w3.org/2000/svg"><g transform="scale(0.625)"><path d="M43.8604 100C43.8604 69.2329 69.0485 44.233 99.986 44.233C130.924 44.233 156.112 69.2603 156.112 100C156.112 130.74 130.924 155.767 99.986 155.767C69.0485 155.767 43.8604 130.74 43.8604 100ZM109.076 160.555C152.635 156.801 189.103 125.517 199.835 82.7257L200 82.1276L188.392 78.1285L188.282 78.9445C183.545 111.535 162.218 138.656 132.649 151.932C136.454 149.565 139.986 146.79 143.162 143.689C176.153 115.234 187.159 68.6073 170.541 27.7204L170.294 27.1491L158.521 30.6856L158.905 31.4202C174.346 60.5278 173.142 94.9128 157.098 122.905C158.741 118.852 159.972 114.581 160.712 110.147C170.568 67.8456 151.896 23.6944 114.251 0.326462L113.73 0L106.311 9.71162L107.05 10.0653C136.865 24.6463 156.249 53.2645 159.781 85.3648C158.686 80.9309 157.098 76.6868 155.099 72.6878C138.097 32.6986 96.8922 7.91623 52.594 10.9903L51.9644 11.0445L51.7181 23.2591L52.5394 23.123C85.3111 17.4918 117.974 29.3525 139.822 53.3189C136.345 50.3809 132.539 47.851 128.46 45.7292C91.0058 23.3407 42.9842 27.3395 9.00752 55.6856L8.5421 56.0937L15.551 66.1046L16.1259 65.5061C39.2608 41.8661 72.5805 32.3994 104.367 38.9555C102.916 38.8467 101.465 38.7923 99.986 38.7923C96.8922 38.7923 93.8533 39.0369 90.8966 39.4724C47.3647 43.1992 10.8966 74.4834 0.164276 117.275L0 117.873L11.6085 121.872L11.7179 121.056C16.4545 88.4387 37.7823 61.344 67.3512 48.0686C63.5455 50.4353 60.0137 53.2101 56.8377 56.3114C23.8193 84.7659 12.8405 131.393 29.4592 172.28L29.7057 172.851L41.4511 169.315L41.0678 168.58C25.6263 139.445 26.8309 105.088 42.8748 77.0949C41.232 81.148 40.0001 85.4195 39.2608 89.8532C29.4044 132.155 48.0767 176.306 85.7221 199.674L86.2425 200L93.6616 190.289L92.9227 189.935C63.1075 175.354 43.7235 146.736 40.1916 114.636C41.2869 119.069 42.8748 123.313 44.8734 127.312C60.972 165.071 98.6174 189.282 140.014 189.282C142.478 189.282 144.942 189.201 147.406 189.037L148.035 188.983L148.282 176.769L147.46 176.905C114.689 182.535 82.0256 170.674 60.178 146.709C63.6549 149.646 67.4606 152.176 71.54 154.298C87.6936 163.956 105.818 168.717 123.942 168.717C147.817 168.717 171.691 160.474 191.02 144.342L191.485 143.934L184.476 133.923L183.902 134.522C160.767 158.161 127.447 167.628 95.6329 161.072C97.0839 161.181 98.5349 161.235 100.014 161.235C103.108 161.235 106.147 160.99 109.103 160.555H109.076Z" fill="currentColor"/></g></svg>